<?xml version="1.0" encoding="UTF-8"?>
<svg version="1.1" xmlns="http://www.w3.org/2000/svg" width="512" height="512">
<path d="M0 0 C1.16102791 -0.00367669 2.32205581 -0.00735338 3.51826638 -0.01114148 C6.73274638 -0.02023914 9.94719637 -0.02487161 13.16168702 -0.02753079 C16.63229478 -0.03144628 20.10288794 -0.04102388 23.57348633 -0.04974365 C31.95230232 -0.06947552 40.33111945 -0.07957123 48.70995286 -0.08847144 C52.66215755 -0.09286071 56.61436092 -0.09822595 60.56656456 -0.10346031 C73.7165375 -0.12047118 86.86650964 -0.13496253 100.01649189 -0.14220905 C103.42645583 -0.14411875 106.83641976 -0.14603911 110.24638367 -0.147995 C111.51757897 -0.14872061 111.51757897 -0.14872061 112.814455 -0.14946087 C126.52459998 -0.15775065 140.23465742 -0.18307036 153.94476423 -0.21557567 C168.04194271 -0.24872426 182.13907682 -0.26666494 196.23629445 -0.26985329 C204.14263444 -0.27201145 212.04884686 -0.28065752 219.9551487 -0.30631447 C226.69258091 -0.32812853 233.42985456 -0.33601981 240.16731808 -0.32634769 C243.59836632 -0.32183337 247.02908816 -0.32351904 250.46009064 -0.34310913 C283.77636259 -0.50217486 310.63834881 7.56447205 335.03520203 31.20967102 C353.3966328 49.60331012 363.6867798 74.70774626 363.68237305 100.61196899 C363.68604973 101.7729969 363.68972642 102.9340248 363.69351453 104.13023537 C363.70261219 107.34471538 363.70724465 110.55916537 363.70990384 113.77365601 C363.71381933 117.24426378 363.72339693 120.71485693 363.7321167 124.18545532 C363.75184857 132.56427131 363.76194427 140.94308845 363.77084449 149.32192186 C363.77523375 153.27412655 363.78059899 157.22632991 363.78583336 161.17853355 C363.80284422 174.3285065 363.81733557 187.47847863 363.8245821 200.62846088 C363.8264918 204.03842482 363.82841215 207.44838875 363.83036804 210.85835266 C363.83085178 211.7058162 363.83133552 212.55327974 363.83183392 213.42642399 C363.84012369 227.13656898 363.86544341 240.84662642 363.89794872 254.55673323 C363.93109731 268.6539117 363.94903798 282.75104581 363.95222634 296.84826344 C363.9543845 304.75460344 363.96303057 312.66081586 363.98868752 320.56711769 C364.01050158 327.30454991 364.01839285 334.04182355 364.00872073 340.77928708 C364.00420642 344.21033532 364.00589209 347.64105715 364.02548218 351.07205963 C364.18065359 383.5726679 356.71301267 410.69136565 333.53520203 434.14717102 C332.89195984 434.86260071 332.24871765 435.5780304 331.58598328 436.31513977 C317.41321234 451.71765222 294.22617146 462.16385837 273.53520203 464.14717102 C269.69417867 464.29252156 265.85605616 464.29071255 262.01261902 464.28761292 C260.85749266 464.29058404 259.7023663 464.29355516 258.51223612 464.29661632 C255.31895515 464.30377125 252.12570705 464.30647366 248.9324193 464.30721378 C245.48300105 464.30907135 242.03359429 464.31662228 238.58418274 464.323349 C231.046642 464.33690538 223.50910661 464.34295307 215.97155571 464.34735966 C211.25951907 464.35012713 206.54748448 464.35436544 201.83544922 464.35886383 C188.77378722 464.37105389 175.71212685 464.38135313 162.65045929 464.38473892 C161.81517697 464.38495849 160.97989466 464.38517805 160.11930075 464.38540427 C158.86347579 464.38573169 158.86347579 464.38573169 157.58228064 464.38606572 C155.8859237 464.38650918 154.18956677 464.38695574 152.49320984 464.3874054 C151.65176841 464.38762683 150.81032698 464.38784826 149.94338733 464.38807639 C136.32250329 464.39202069 122.70167288 464.40946464 109.08080953 464.43276492 C95.07626969 464.45652689 81.07175669 464.468943 67.06719637 464.47010684 C59.21238057 464.47102098 51.35763461 464.476707 43.50283813 464.49492645 C36.81150298 464.51039312 30.12025925 464.51540951 23.4289096 464.50718835 C20.02039392 464.50330463 16.61221033 464.50575967 13.20369339 464.5182457 C-20.65485566 464.63495047 -47.20782183 457.0485914 -71.96479797 433.08467102 C-90.32702648 414.69292556 -100.61637549 389.58505632 -100.61196899 363.68237305 C-100.61564568 362.52134514 -100.61932237 361.36031724 -100.62311047 360.16410667 C-100.63220814 356.94962667 -100.6368406 353.73517667 -100.63949978 350.52068603 C-100.64341527 347.05007827 -100.65299287 343.57948511 -100.66171265 340.10888672 C-100.68144452 331.73007073 -100.69154022 323.35125359 -100.70044044 314.97242019 C-100.7048297 311.02021549 -100.71019494 307.06801213 -100.71542931 303.11580849 C-100.73244017 289.96583554 -100.74693152 276.81586341 -100.75417805 263.66588116 C-100.75608774 260.25591722 -100.7580081 256.84595329 -100.75996399 253.43598938 C-100.76044773 252.58852584 -100.76093147 251.7410623 -100.76142987 250.86791805 C-100.76971964 237.15777307 -100.79503936 223.44771562 -100.82754467 209.73760881 C-100.86069325 195.64043034 -100.87863393 181.54329623 -100.88182229 167.4460786 C-100.88398045 159.5397386 -100.89262651 151.63352618 -100.91828346 143.72722435 C-100.94009753 136.98979214 -100.9479888 130.25251849 -100.93831668 123.51505496 C-100.93380236 120.08400673 -100.93548803 116.65328489 -100.95507812 113.22228241 C-101.11414386 79.90601046 -93.04749694 53.04402424 -69.40229797 28.64717102 C-51.00865887 10.28574025 -25.90422273 -0.00440675 0 0 Z " fill="#6DB9FE" transform="translate(124.46479797363281,23.852828979492188)"/>
<path d="M0 0 C4.09206332 1.808121 6.69807584 4.16345973 9 8 C9.41123634 13.81391153 8.56085896 18.36652299 6.515625 23.83203125 C6.25875916 24.54928879 6.00189331 25.26654633 5.73724365 26.00553894 C4.91996442 28.27900024 4.08539976 30.54564323 3.25 32.8125 C2.70456826 34.32054417 2.16028815 35.82900538 1.6171875 37.33789062 C-0.31784497 42.69901985 -2.26161177 48.05592828 -4.28540039 53.38427734 C-4.65141357 54.35445801 -5.01742676 55.32463867 -5.39453125 56.32421875 C-5.71010986 57.14365967 -6.02568848 57.96310059 -6.35083008 58.80737305 C-7.38930007 62.31489428 -7.08796933 64.51849816 -6 68 C-4.9946925 69.80720459 -4.9946925 69.80720459 -3 71 C-0.29101852 71.29090506 2.1872279 71.39959489 4.89624023 71.37231445 C6.10157913 71.37779045 6.10157913 71.37779045 7.33126831 71.38337708 C9.99059103 71.39149052 12.64930587 71.37786489 15.30859375 71.36328125 C17.15560404 71.36276269 19.00261489 71.36328024 20.84962463 71.36479187 C24.72250599 71.36470211 28.59517936 71.35426549 32.46801758 71.33618164 C37.43254817 71.31351023 42.39677434 71.3129471 47.36134243 71.31969929 C51.17632248 71.32304114 54.99123314 71.31640483 58.80620003 71.30657005 C60.63663431 71.3027203 62.46707632 71.30156891 64.29751396 71.3031559 C66.85661388 71.30352679 69.41532389 71.29089923 71.97436523 71.2746582 C72.73138229 71.27713562 73.48839935 71.27961304 74.26835632 71.28216553 C79.5100444 71.31358519 79.5100444 71.31358519 84 69 C85.34167469 66.42978386 85.34167469 66.42978386 86.28662109 63.28442383 C86.68738861 62.08590286 87.08815613 60.8873819 87.50106812 59.65254211 C87.70816784 59.01003321 87.91526756 58.3675243 88.12864304 57.70554543 C88.78010279 55.68637244 89.45023707 53.67429021 90.12564087 51.66300964 C91.80057358 46.66279235 93.44448457 41.65250814 95.08636475 36.64135742 C96.47292837 32.41227269 97.87274822 28.18804557 99.29066849 23.96936607 C99.94738722 21.99771298 100.58445076 20.02041745 101.22103882 18.04219055 C106.11546998 3.44226501 106.11546998 3.44226501 113 0 C118.01353911 -0.37838031 121.00482115 -0.13135639 125 3 C128.13054823 5.9613294 128.95329988 7.3397705 129.26074219 11.6862793 C129.16162905 16.01055101 128.02238167 19.80550362 126.515625 23.83203125 C126.13032623 24.90791756 126.13032623 24.90791756 125.73724365 26.00553894 C124.91996442 28.27900024 124.08539976 30.54564323 123.25 32.8125 C122.70456826 34.32054417 122.16028815 35.82900538 121.6171875 37.33789062 C119.68215503 42.69901985 117.73838823 48.05592828 115.71459961 53.38427734 C115.34858643 54.35445801 114.98257324 55.32463867 114.60546875 56.32421875 C114.28989014 57.14365967 113.97431152 57.96310059 113.64916992 58.80737305 C112.61069993 62.31489428 112.91203067 64.51849816 114 68 C115.0139532 69.80262468 115.0139532 69.80262468 117 71 C119.66489386 71.29514215 122.10811351 71.41721465 124.7734375 71.40625 C125.53419586 71.41708618 126.29495422 71.42792236 127.07876587 71.43908691 C129.51093023 71.47336074 131.94262589 71.48893938 134.375 71.5 C137.57076174 71.51459542 140.76548131 71.54834837 143.9609375 71.59375 C144.69130219 71.59072876 145.42166687 71.58770752 146.17416382 71.58459473 C152.06546299 71.67084113 155.1567382 73.20655609 159.3125 77.25 C161.49381184 80.80473041 161.51379023 82.88967819 161 87 C159.48007896 90.18459646 157.71704041 92.73579966 155 95 C152.09322066 95.96892645 150.24768581 96.12433249 147.22485352 96.12597656 C145.77303429 96.13168671 145.77303429 96.13168671 144.29188538 96.13751221 C143.24810226 96.13853943 142.20431915 96.13956665 141.12890625 96.140625 C138.92381774 96.15894689 136.71873932 96.17851662 134.51367188 96.19921875 C131.03294813 96.22823913 127.55287428 96.25000135 124.07202148 96.25048828 C120.71539468 96.25381473 117.36027263 96.28831183 114.00390625 96.328125 C112.44126793 96.31752045 112.44126793 96.31752045 110.84706116 96.30670166 C109.87602951 96.32311707 108.90499786 96.33953247 107.90454102 96.35644531 C106.625718 96.36191376 106.625718 96.36191376 105.32106018 96.36749268 C101.91143347 97.29664302 100.89801739 99.08664117 99 102 C97.7797025 104.635606 97.7797025 104.635606 96.88110352 107.48608398 C96.51714981 108.56168076 96.15319611 109.63727753 95.7782135 110.74546814 C95.39894211 111.90067459 95.01967072 113.05588104 94.62890625 114.24609375 C94.22469955 115.4487941 93.82049286 116.65149445 93.40403748 117.89064026 C92.33163532 121.08697468 91.26812768 124.28598222 90.20910645 127.48675537 C88.72725065 131.95736073 87.22762658 136.42205205 85.73167419 140.88795471 C84.93858311 143.25904699 84.14808426 145.63100862 83.36073303 148.00401306 C82.99362717 149.10797928 82.6265213 150.2119455 82.24829102 151.34936523 C81.88816925 152.43410126 81.52804749 153.51883728 81.15701294 154.63644409 C80.34230231 157.0048919 79.48870739 159.36014164 78.60739136 161.70462036 C78.14905914 162.92494965 77.69072693 164.14527893 77.21850586 165.40258789 C76.79508408 166.49946426 76.37166229 167.59634064 75.93540955 168.72645569 C74.6593628 173.1920885 74.03396124 177.2346909 76.31665039 181.40600586 C80.6446547 183.97697667 84.99412736 183.54293851 89.93359375 183.50390625 C91.00368179 183.51332748 92.07376984 183.52274872 93.17628479 183.53245544 C96.59688432 183.56114655 100.01678974 183.56418212 103.4375 183.5625 C106.85453849 183.56610625 110.27107081 183.57563166 113.68800354 183.60325623 C115.81370137 183.6200557 117.93956588 183.62291176 120.06529236 183.61024475 C126.80126749 183.65815732 130.37856488 184.44941448 135.3125 189.25 C137.49381184 192.80473041 137.51379023 194.88967819 137 199 C135.48007896 202.18459646 133.71704041 204.73579966 131 207 C127.7468355 208.08438817 125.3628496 208.13102231 121.93969727 208.1418457 C120.69152725 208.14888016 119.44335724 208.15591461 118.15736389 208.16316223 C117.49088396 208.16497812 116.82440403 208.16679401 116.13772774 208.16866493 C114.04858044 208.17584249 111.95966637 208.19151748 109.87059021 208.21000671 C103.93158115 208.26242263 97.99270233 208.31046601 92.0534668 208.32592773 C88.41875636 208.33600994 84.78463679 208.36533556 81.15015984 208.40724754 C79.76634121 208.41955576 78.38243915 208.4246791 76.99856758 208.42244911 C75.06221411 208.42009615 73.12588403 208.44445407 71.18969727 208.4699707 C70.08844009 208.47583694 68.98718292 208.48170319 67.85255432 208.48774719 C64.25175686 209.13436717 63.1817646 210.09403734 61 213 C59.68200368 215.79721884 59.68200368 215.79721884 58.69750977 218.97436523 C58.09151695 220.78160316 58.09151695 220.78160316 57.47328186 222.62535095 C57.16019923 223.58648961 57.16019923 223.58648961 56.8407917 224.56704521 C56.18282854 226.58490006 55.50954812 228.59705136 54.83201599 230.6084137 C53.15238448 235.60408132 51.49612336 240.60740455 49.8449707 245.61254883 C48.44821383 249.84572323 47.03979716 254.07462597 45.61445427 258.29826546 C44.95307637 260.27373625 44.30923884 262.25437375 43.66566467 264.23570251 C43.05494362 266.04766869 43.05494362 266.04766869 42.43188477 267.89624023 C42.0819899 268.9567308 41.73209503 270.01722137 41.37159729 271.10984802 C39.75156238 274.52349365 37.85397253 276.54504466 35 279 C31.29397865 280.23534045 28.90246386 280.45528745 25 280 C21.72730487 277.89797249 18.7557965 275.511593 17 272 C16.4884401 265.27254017 17.97199328 260.13231926 20.24609375 253.83984375 C20.57666275 252.89113907 20.90723175 251.94243439 21.24781799 250.96498108 C22.29941597 247.95158836 23.3672388 244.94430953 24.4375 241.9375 C25.50207845 238.92645664 26.5629541 235.91423958 27.61647034 232.89930725 C28.27063142 231.02922665 28.93138533 229.16143501 29.59971619 227.29637146 C32.1497438 220.30609981 32.1497438 220.30609981 33 213 C30.16678553 209.92651392 28.44321281 209.06042994 24.27464294 208.49206543 C22.808852 208.46842875 21.34260549 208.46663516 19.87670898 208.48242188 C19.07285767 208.4754126 18.26900635 208.46840332 17.4407959 208.46118164 C14.79220716 208.44362218 12.14469274 208.45521555 9.49609375 208.46875 C7.65193985 208.46605475 5.80778734 208.46217206 3.96363831 208.45715332 C0.10265545 208.45126129 -3.75795677 208.45981265 -7.61889648 208.47851562 C-12.56788612 208.50132109 -17.51600883 208.48817027 -22.46496677 208.46422577 C-26.27140337 208.44977343 -30.07763429 208.45437089 -33.88407707 208.46473694 C-35.70893392 208.46740496 -37.53380945 208.46413181 -39.35864449 208.45481873 C-41.90830102 208.44466049 -44.45655173 208.46014219 -47.00610352 208.48242188 C-47.75997849 208.47432495 -48.51385345 208.46622803 -49.29057312 208.45788574 C-52.59078491 208.51131888 -54.62742407 208.73762289 -57.35571289 210.65895081 C-59.26061906 213.37105566 -60.26483471 215.82454961 -61.30249023 218.97436523 C-61.70648544 220.17919052 -62.11048065 221.38401581 -62.52671814 222.62535095 C-62.73543989 223.26611006 -62.94416164 223.90686916 -63.1592083 224.56704521 C-63.81717146 226.58490006 -64.49045188 228.59705136 -65.16798401 230.6084137 C-66.84761552 235.60408132 -68.50387664 240.60740455 -70.1550293 245.61254883 C-71.55178617 249.84572323 -72.96020284 254.07462597 -74.38554573 258.29826546 C-75.04692363 260.27373625 -75.69076116 262.25437375 -76.33433533 264.23570251 C-76.7414827 265.44367996 -77.14863007 266.65165741 -77.56811523 267.89624023 C-77.9180101 268.9567308 -78.26790497 270.01722137 -78.62840271 271.10984802 C-80.24843762 274.52349365 -82.14602747 276.54504466 -85 279 C-88.70602135 280.23534045 -91.09753614 280.45528745 -95 280 C-98.27269513 277.89797249 -101.2442035 275.511593 -103 272 C-103.5115599 265.27254017 -102.02800672 260.13231926 -99.75390625 253.83984375 C-99.42333725 252.89113907 -99.09276825 251.94243439 -98.75218201 250.96498108 C-97.70058403 247.95158836 -96.6327612 244.94430953 -95.5625 241.9375 C-94.49792155 238.92645664 -93.4370459 235.91423958 -92.38352966 232.89930725 C-91.72936858 231.02922665 -91.06861467 229.16143501 -90.40028381 227.29637146 C-87.8502562 220.30609981 -87.8502562 220.30609981 -87 213 C-89.68349129 209.66939702 -91.4353469 209.06935127 -95.66943359 208.54931641 C-97.07920894 208.54858323 -98.48908522 208.56701926 -99.8984375 208.6015625 C-101.44531402 208.59682605 -102.99218911 208.59160253 -104.5390625 208.5859375 C-106.95729404 208.6006529 -109.37494718 208.62499923 -111.79296875 208.66015625 C-127.07865328 208.8347073 -127.07865328 208.8347073 -131.5390625 205.1484375 C-134.99617244 200.72553177 -135.64782789 197.55281046 -135 192 C-132.89797249 188.72730487 -130.511593 185.7557965 -127 184 C-125.44866969 183.89674539 -123.89309669 183.85411096 -122.33837891 183.84228516 C-121.37042389 183.83202301 -120.40246887 183.82176086 -119.40518188 183.81118774 C-117.83176529 183.80023575 -117.83176529 183.80023575 -116.2265625 183.7890625 C-114.01822172 183.76099624 -111.80988849 183.7323318 -109.6015625 183.703125 C-106.11002798 183.66182834 -102.61863452 183.62495202 -99.12695312 183.59863281 C-95.76402514 183.57106783 -92.40174286 183.52519676 -89.0390625 183.4765625 C-87.99416656 183.47330963 -86.94927063 183.47005676 -85.87271118 183.46670532 C-84.89845184 183.45013885 -83.9241925 183.43357239 -82.92041016 183.41650391 C-81.63706284 183.40437363 -81.63706284 183.40437363 -80.32778931 183.39199829 C-77.39884458 182.8987658 -76.11152857 182.0834766 -74 180 C-72.7572963 177.59788239 -72.7572963 177.59788239 -71.89697266 174.78857422 C-71.53624664 173.72250946 -71.17552063 172.6564447 -70.80386353 171.55807495 C-70.42772919 170.40195709 -70.05159485 169.24583923 -69.6640625 168.0546875 C-69.06130997 166.25706467 -69.06130997 166.25706467 -68.44638062 164.42312622 C-67.37710549 161.22691355 -66.31941158 158.02734192 -65.26739502 154.82543945 C-63.8034351 150.38056506 -62.3160977 145.94344398 -60.83441162 141.50445557 C-60.01657933 139.05014892 -59.20164813 136.59487353 -58.38970947 134.13861084 C-56.66938761 128.94234196 -54.93574507 123.75729425 -53.06152344 118.61425781 C-52.7765097 117.83140411 -52.49149597 117.04855042 -52.19784546 116.24197388 C-51.6885773 114.85850256 -51.17121467 113.47796488 -50.64321899 112.10153198 C-49.22852008 108.27039181 -48.41990978 105.07338078 -49 101 C-50.18106727 98.42413892 -50.18106727 98.42413892 -53 97 C-56.69702577 96.45502949 -60.35217621 96.53912992 -64.08203125 96.6015625 C-66.31575626 96.59682572 -68.54948028 96.59160215 -70.78320312 96.5859375 C-74.29876415 96.60066648 -77.81392887 96.62501428 -81.3293457 96.66015625 C-84.72656141 96.6868703 -88.1222697 96.6772092 -91.51953125 96.6640625 C-92.564543 96.68570465 -93.60955475 96.7073468 -94.68623352 96.72964478 C-100.83047428 96.68823018 -104.29929583 95.9033432 -108.77470398 91.5821228 C-111.53189672 88.02198923 -111.50259844 84.30798665 -111 80 C-108.89797249 76.72730487 -106.511593 73.7557965 -103 72 C-101.01995073 71.8899818 -99.03625229 71.84352187 -97.05322266 71.82641602 C-95.80497711 71.81292618 -94.55673157 71.79943634 -93.2706604 71.78553772 C-92.60168354 71.78047777 -91.93270668 71.77541782 -91.24345779 71.77020454 C-89.15020178 71.75379761 -87.05712559 71.73055953 -84.96395874 71.70530701 C-79.01219645 71.63452672 -73.06036031 71.57444363 -67.10839844 71.52319336 C-63.46850737 71.491372 -59.82882236 71.45008747 -56.18909836 71.40299797 C-54.80248095 71.38699537 -53.41581607 71.37466574 -52.02913284 71.36609077 C-50.08786822 71.35391458 -48.14669843 71.32872824 -46.20556641 71.30297852 C-44.54915634 71.28751732 -44.54915634 71.28751732 -42.85928345 71.27174377 C-39.92373422 70.99275177 -38.33998111 70.78430171 -36 69 C-34.65832531 66.42978386 -34.65832531 66.42978386 -33.71337891 63.28442383 C-33.11222763 61.48664238 -33.11222763 61.48664238 -32.49893188 59.65254211 C-32.29183216 59.01003321 -32.08473244 58.3675243 -31.87135696 57.70554543 C-31.21989721 55.68637244 -30.54976293 53.67429021 -29.87435913 51.66300964 C-28.19942642 46.66279235 -26.55551543 41.65250814 -24.91363525 36.64135742 C-23.52707163 32.41227269 -22.12725178 28.18804557 -20.70933151 23.96936607 C-20.05261278 21.99771298 -19.41554924 20.02041745 -18.77896118 18.04219055 C-15.37473992 7.88751163 -12.05064211 -0.81699269 0 0 Z " fill="#FDFDFD" transform="translate(243,116)"/>
<path d="M0 0 C1.16102791 -0.00367669 2.32205581 -0.00735338 3.51826638 -0.01114148 C6.73274638 -0.02023914 9.94719637 -0.02487161 13.16168702 -0.02753079 C16.63229478 -0.03144628 20.10288794 -0.04102388 23.57348633 -0.04974365 C31.95230232 -0.06947552 40.33111945 -0.07957123 48.70995286 -0.08847144 C52.66215755 -0.09286071 56.61436092 -0.09822595 60.56656456 -0.10346031 C73.7165375 -0.12047118 86.86650964 -0.13496253 100.01649189 -0.14220905 C103.42645583 -0.14411875 106.83641976 -0.14603911 110.24638367 -0.147995 C111.51757897 -0.14872061 111.51757897 -0.14872061 112.814455 -0.14946087 C126.52459998 -0.15775065 140.23465742 -0.18307036 153.94476423 -0.21557567 C168.04194271 -0.24872426 182.13907682 -0.26666494 196.23629445 -0.26985329 C204.14263444 -0.27201145 212.04884686 -0.28065752 219.9551487 -0.30631447 C226.69258091 -0.32812853 233.42985456 -0.33601981 240.16731808 -0.32634769 C243.59836632 -0.32183337 247.02908816 -0.32351904 250.46009064 -0.34310913 C283.77636259 -0.50217486 310.63834881 7.56447205 335.03520203 31.20967102 C353.3966328 49.60331012 363.6867798 74.70774626 363.68237305 100.61196899 C363.68604973 101.7729969 363.68972642 102.9340248 363.69351453 104.13023537 C363.70261219 107.34471538 363.70724465 110.55916537 363.70990384 113.77365601 C363.71381933 117.24426378 363.72339693 120.71485693 363.7321167 124.18545532 C363.75184857 132.56427131 363.76194427 140.94308845 363.77084449 149.32192186 C363.77523375 153.27412655 363.78059899 157.22632991 363.78583336 161.17853355 C363.80284422 174.3285065 363.81733557 187.47847863 363.8245821 200.62846088 C363.8264918 204.03842482 363.82841215 207.44838875 363.83036804 210.85835266 C363.83085178 211.7058162 363.83133552 212.55327974 363.83183392 213.42642399 C363.84012369 227.13656898 363.86544341 240.84662642 363.89794872 254.55673323 C363.93109731 268.6539117 363.94903798 282.75104581 363.95222634 296.84826344 C363.9543845 304.75460344 363.96303057 312.66081586 363.98868752 320.56711769 C364.01050158 327.30454991 364.01839285 334.04182355 364.00872073 340.77928708 C364.00420642 344.21033532 364.00589209 347.64105715 364.02548218 351.07205963 C364.18065359 383.5726679 356.71301267 410.69136565 333.53520203 434.14717102 C332.89195984 434.86260071 332.24871765 435.5780304 331.58598328 436.31513977 C317.41321234 451.71765222 294.22617146 462.16385837 273.53520203 464.14717102 C269.69417867 464.29252156 265.85605616 464.29071255 262.01261902 464.28761292 C260.85749266 464.29058404 259.7023663 464.29355516 258.51223612 464.29661632 C255.31895515 464.30377125 252.12570705 464.30647366 248.9324193 464.30721378 C245.48300105 464.30907135 242.03359429 464.31662228 238.58418274 464.323349 C231.046642 464.33690538 223.50910661 464.34295307 215.97155571 464.34735966 C211.25951907 464.35012713 206.54748448 464.35436544 201.83544922 464.35886383 C188.77378722 464.37105389 175.71212685 464.38135313 162.65045929 464.38473892 C161.81517697 464.38495849 160.97989466 464.38517805 160.11930075 464.38540427 C158.86347579 464.38573169 158.86347579 464.38573169 157.58228064 464.38606572 C155.8859237 464.38650918 154.18956677 464.38695574 152.49320984 464.3874054 C151.65176841 464.38762683 150.81032698 464.38784826 149.94338733 464.38807639 C136.32250329 464.39202069 122.70167288 464.40946464 109.08080953 464.43276492 C95.07626969 464.45652689 81.07175669 464.468943 67.06719637 464.47010684 C59.21238057 464.47102098 51.35763461 464.476707 43.50283813 464.49492645 C36.81150298 464.51039312 30.12025925 464.51540951 23.4289096 464.50718835 C20.02039392 464.50330463 16.61221033 464.50575967 13.20369339 464.5182457 C-20.65485566 464.63495047 -47.20782183 457.0485914 -71.96479797 433.08467102 C-90.32702648 414.69292556 -100.61637549 389.58505632 -100.61196899 363.68237305 C-100.61564568 362.52134514 -100.61932237 361.36031724 -100.62311047 360.16410667 C-100.63220814 356.94962667 -100.6368406 353.73517667 -100.63949978 350.52068603 C-100.64341527 347.05007827 -100.65299287 343.57948511 -100.66171265 340.10888672 C-100.68144452 331.73007073 -100.69154022 323.35125359 -100.70044044 314.97242019 C-100.7048297 311.02021549 -100.71019494 307.06801213 -100.71542931 303.11580849 C-100.73244017 289.96583554 -100.74693152 276.81586341 -100.75417805 263.66588116 C-100.75608774 260.25591722 -100.7580081 256.84595329 -100.75996399 253.43598938 C-100.76044773 252.58852584 -100.76093147 251.7410623 -100.76142987 250.86791805 C-100.76971964 237.15777307 -100.79503936 223.44771562 -100.82754467 209.73760881 C-100.86069325 195.64043034 -100.87863393 181.54329623 -100.88182229 167.4460786 C-100.88398045 159.5397386 -100.89262651 151.63352618 -100.91828346 143.72722435 C-100.94009753 136.98979214 -100.9479888 130.25251849 -100.93831668 123.51505496 C-100.93380236 120.08400673 -100.93548803 116.65328489 -100.95507812 113.22228241 C-101.11414386 79.90601046 -93.04749694 53.04402424 -69.40229797 28.64717102 C-51.00865887 10.28574025 -25.90422273 -0.00440675 0 0 Z M-56.46479797 39.14717102 C-57.20085266 39.76978821 -57.93690735 40.3924054 -58.69526672 41.03388977 C-74.02075073 55.13578224 -83.87245903 77.34097289 -84.83207512 97.97795296 C-85.02769574 105.03602299 -84.99477791 112.09323461 -84.96650696 119.15327454 C-84.96808822 121.86033736 -84.97564953 124.56737648 -84.98287964 127.27442932 C-84.99672584 133.82928523 -84.98932049 140.38394691 -84.97420406 146.93879337 C-84.95723876 154.59012985 -84.96056736 162.24141936 -84.96429814 169.89276885 C-84.97016083 183.55435007 -84.95606738 197.21583879 -84.93135071 210.87739563 C-84.90742994 224.10073818 -84.90035035 237.3239572 -84.9108429 250.5473175 C-84.92227974 264.98637767 -84.92414845 279.42538087 -84.9097448 293.86444038 C-84.90821914 295.40716453 -84.90669878 296.94988868 -84.90518379 298.49261284 C-84.90442598 299.2514409 -84.90366816 300.01026896 -84.90288739 300.79209181 C-84.89816626 306.11173446 -84.89998045 311.43135149 -84.90424919 316.75099373 C-84.90920113 323.24267461 -84.90307969 329.73423926 -84.88335489 336.22589368 C-84.87355567 339.53117008 -84.86993158 342.83612492 -84.87624741 346.14143181 C-84.92385595 365.34221377 -84.92385595 365.34221377 -81.46479797 384.14717102 C-81.24757804 384.93692605 -81.0303581 385.72668108 -80.80655575 386.54036808 C-74.05249572 408.80470037 -58.31057072 427.18694173 -37.98929608 438.3028397 C-19.64428151 447.92216998 -1.44696086 448.87734348 18.94194031 448.77827454 C21.6560596 448.78066619 24.37014105 448.79052509 27.08424377 448.79995728 C33.64541113 448.81819026 40.20627768 448.80991924 46.76743521 448.79186905 C52.10581569 448.77775828 57.44411533 448.77396829 62.78251266 448.77731133 C63.54658049 448.77778877 64.31064832 448.77826621 65.09786972 448.77875812 C66.65074916 448.7797846 68.20362858 448.78083996 69.75650798 448.78192388 C83.44077423 448.79046162 97.12489659 448.77391033 110.80912781 448.74409485 C124.04681945 448.71525326 137.28430397 448.7081831 150.52201843 448.72358704 C164.98713489 448.74039652 179.45215336 448.74433608 193.91727245 448.72687668 C195.46335593 448.72503256 197.00943942 448.72319783 198.55552292 448.7213726 C199.69616159 448.72000447 199.69616159 448.72000447 200.85984347 448.7186087 C206.1846008 448.7130336 211.50930981 448.7162819 216.83406448 448.72291756 C223.33333456 448.73069648 229.83240178 448.7237355 236.33163132 448.69874252 C239.63927897 448.68635306 242.94635414 448.68216047 246.25405121 448.69128418 C275.73411516 448.7631881 300.86621999 443.2135332 322.71488953 422.05732727 C339.90238247 404.72417761 347.67767825 381.88804461 347.68910217 357.91725159 C347.69348443 356.79353236 347.69786668 355.66981313 347.70238173 354.51204181 C347.71572603 350.75011699 347.72193884 346.98821557 347.72807312 343.22627258 C347.73597769 340.52703681 347.74424252 337.82780398 347.75285339 335.12857056 C347.77731787 327.03047981 347.79199712 318.93238307 347.80491346 310.83426678 C347.80863017 308.54356321 347.81260302 306.25286023 347.81666613 303.96215725 C347.84191077 289.71068998 347.86394497 275.45922165 347.87639427 261.20773697 C347.87932355 257.91036729 347.88228527 254.61299765 347.88529968 251.31562805 C347.88641876 250.08644123 347.88641876 250.08644123 347.88756044 248.83242235 C347.90019417 235.57955821 347.93339387 222.32682882 347.97510152 209.07402757 C348.01765356 195.44011375 348.04110466 181.80626866 348.04631484 168.17228866 C348.04971428 160.52855232 348.06129457 152.88502646 348.09441757 145.2413559 C348.12260254 138.72686232 348.13333756 132.21262242 348.12222211 125.69807264 C348.11708158 122.3820128 348.12241794 119.06690731 348.14468765 115.7508564 C348.32147782 87.88991725 342.83262478 65.57002419 324.53520203 44.14717102 C323.97445984 43.4845929 323.41371765 42.82201477 322.83598328 42.13935852 C309.22218221 27.39393167 287.2149455 16.8719984 267.18561327 16.05084348 C264.25256717 16.00626931 261.32096224 15.99465981 258.38757324 15.99327087 C257.26062489 15.98888862 256.13367653 15.98450637 254.97257823 15.97999132 C251.1937278 15.96662979 247.41490069 15.96043028 243.6360321 15.95429993 C240.92709067 15.94691962 238.21815407 15.93813204 235.50921631 15.92951965 C227.3765956 15.90503796 219.24396887 15.89037225 211.11132267 15.87745959 C208.81108 15.87374377 206.51083792 15.86977084 204.21059585 15.86570692 C189.90265268 15.84046031 175.59470845 15.81842399 161.28674793 15.80597878 C157.97511606 15.80304944 154.66348422 15.80008773 151.35185242 15.79707336 C150.11733142 15.79595429 150.11733142 15.79595429 148.8578706 15.7948126 C135.54997765 15.7821812 122.24221898 15.74898599 108.93438867 15.70727153 C95.24626592 15.66471985 81.55821163 15.64126831 67.87002295 15.63605821 C60.19497297 15.63265844 52.52013258 15.62107444 44.84514809 15.58795547 C38.3031822 15.55977086 31.76146891 15.54903526 25.21944705 15.56015094 C21.88921866 15.56529182 18.5599406 15.5599534 15.22972107 15.53768539 C-12.64488078 15.36157465 -35.04255598 20.80641335 -56.46479797 39.14717102 Z " fill="#000000" transform="translate(124.46479797363281,23.852828979492188)"/>
<path d="M0 0 C5.87688317 5.05515968 9.24714925 10.68523879 10.33227539 18.34570312 C10.88236623 28.86918009 7.02346579 38.01780603 3.5 47.75 C1.355 53.7725 -0.79 59.795 -3 66 C16.8 65.67 36.6 65.34 57 65 C62.37756269 48.9980605 62.37756269 48.9980605 67.73901367 32.99072266 C68.42308897 30.96497454 69.10770552 28.93940908 69.79296875 26.9140625 C70.13444946 25.88563232 70.47593018 24.85720215 70.82775879 23.79760742 C74.76269495 12.21777073 78.86404215 1.82807737 90.1953125 -4.16015625 C97.02929729 -6.79332243 104.16579033 -7.31006163 111.12109375 -4.93359375 C119.17826133 -1.24198264 125.23495021 3.56362844 128.9375 11.75 C132.61709321 24.5354937 127.82331051 35.82239476 123.5 47.75 C122.87198326 49.52543608 122.24566678 51.30147455 121.62109375 53.078125 C120.10024446 57.39261223 118.55661387 61.69829374 117 66 C117.9744104 65.9685791 117.9744104 65.9685791 118.96850586 65.93652344 C121.95800833 65.85254417 124.94726158 65.801084 127.9375 65.75 C128.95908203 65.71648437 129.98066406 65.68296875 131.03320312 65.6484375 C140.99879161 65.52108174 147.96186995 68.30439773 155.2734375 75.0625 C160.79245876 81.25579082 162.48495018 88.54420021 162.40625 96.66015625 C161.53124324 103.85372143 158.00201639 110.55799645 152.6875 115.5 C145.32466066 120.78009633 138.71031207 122.59832925 129.71484375 122.390625 C128.77314835 122.38496521 127.83145294 122.37930542 126.86122131 122.37347412 C123.88610592 122.35128111 120.91224452 122.30111825 117.9375 122.25 C115.90691857 122.22991288 113.87631806 122.21166601 111.84570312 122.1953125 C106.8966604 122.15147253 101.94854198 122.08256568 97 122 C96.73674423 122.89954407 96.73674423 122.89954407 96.46817017 123.81726074 C94.60712265 130.10697333 92.58412533 136.32563576 90.4609375 142.53125 C89.97145126 143.96784973 89.97145126 143.96784973 89.47207642 145.43347168 C88.78891236 147.43707039 88.10485073 149.44036327 87.41992188 151.44335938 C86.36861075 154.51869005 85.32083392 157.59520913 84.2734375 160.671875 C83.60697887 162.625071 82.9403195 164.57819851 82.2734375 166.53125 C81.95990326 167.45200317 81.64636902 168.37275635 81.32333374 169.32141113 C80.88750473 170.59413879 80.88750473 170.59413879 80.44287109 171.89257812 C80.18766693 172.63963013 79.93246277 173.38668213 79.66952515 174.15637207 C79 176 79 176 78 178 C79.10400146 177.97905273 80.20800293 177.95810547 81.34545898 177.93652344 C85.47716077 177.86362393 89.60880677 177.8180204 93.7409668 177.78027344 C95.52263986 177.76027095 97.30424823 177.73305977 99.08569336 177.69824219 C118.15924775 177.33503813 118.15924775 177.33503813 125 182 C125.82113281 182.54140625 126.64226562 183.0828125 127.48828125 183.640625 C133.2779683 188.74844312 137.33918839 194.65495423 138.30859375 202.49609375 C138.70981436 211.65121863 136.31737848 218.88082266 130.359375 225.9453125 C122.14092382 233.58770402 113.26775775 234.57362925 102.43359375 234.390625 C101.15895767 234.38496521 99.88432159 234.37930542 98.57106018 234.37347412 C95.21203578 234.35497782 91.85413662 234.31915909 88.49542236 234.2746582 C85.05629097 234.23345023 81.61704246 234.21540916 78.17773438 234.1953125 C71.45151684 234.15136567 64.72582325 234.08454307 58 234 C57.73807861 235.27488281 57.47615723 236.54976562 57.20629883 237.86328125 C56.04068415 243.09568961 54.42485003 248.11648245 52.69921875 253.1875 C52.38096634 254.13004639 52.06271393 255.07259277 51.7348175 256.04370117 C51.06405054 258.02444055 50.39076888 260.00432996 49.71508789 261.98339844 C48.69148426 264.98830375 47.6823222 267.99780778 46.67382812 271.0078125 C46.01650194 272.94300642 45.35832672 274.87791221 44.69921875 276.8125 C44.4031926 277.70026123 44.10716644 278.58802246 43.8021698 279.50268555 C40.33909347 289.54675366 36.31241277 298.04834259 26.6796875 303.25390625 C19.22644554 306.60669691 12.33194768 307.09696266 4.4375 305 C-3.35755957 302.00614526 -8.6191315 296.66161218 -12.0625 289.125 C-18.71997656 270.65512579 -6.92920959 251.12882771 -1 234 C-21.13 234 -41.26 234 -62 234 C-62.66 236.97 -63.32 239.94 -64 243 C-64.47554392 244.64909811 -64.97771452 246.29115616 -65.5246582 247.91796875 C-65.80867996 248.76915283 -66.09270172 249.62033691 -66.3853302 250.49731445 C-66.68742905 251.38507568 -66.98952789 252.27283691 -67.30078125 253.1875 C-67.61903366 254.13004639 -67.93728607 255.07259277 -68.2651825 256.04370117 C-68.93594946 258.02444055 -69.60923112 260.00432996 -70.28491211 261.98339844 C-71.30851574 264.98830375 -72.3176778 267.99780778 -73.32617188 271.0078125 C-73.98349806 272.94300642 -74.64167328 274.87791221 -75.30078125 276.8125 C-75.5968074 277.70026123 -75.89283356 278.58802246 -76.1978302 279.50268555 C-79.66090653 289.54675366 -83.68758723 298.04834259 -93.3203125 303.25390625 C-100.77355446 306.60669691 -107.66805232 307.09696266 -115.5625 305 C-123.35755957 302.00614526 -128.6191315 296.66161218 -132.0625 289.125 C-137.4265306 274.24354011 -130.20399378 260.34753109 -125.25 246.1875 C-124.63318359 244.41536133 -124.63318359 244.41536133 -124.00390625 242.60742188 C-123.00467968 239.73755023 -122.00335627 236.86842986 -121 234 C-121.64960693 234.02094727 -122.29921387 234.04189453 -122.96850586 234.06347656 C-125.95800833 234.14745583 -128.94726158 234.198916 -131.9375 234.25 C-132.95908203 234.28351563 -133.98066406 234.31703125 -135.03320312 234.3515625 C-144.99879161 234.47891826 -151.96186995 231.69560227 -159.2734375 224.9375 C-164.91505459 218.60663557 -166.37299001 211.39567072 -166.2734375 203.1328125 C-165.56000178 194.9588775 -161.03559771 188.37849634 -155 183 C-150.23039251 179.96638935 -145.41448929 177.86975223 -139.7121582 177.88647461 C-138.85149246 177.88655014 -137.99082672 177.88662567 -137.1040802 177.88670349 C-136.17899155 177.89186478 -135.25390289 177.89702606 -134.30078125 177.90234375 C-133.35059616 177.9037587 -132.40041107 177.90517365 -131.4214325 177.90663147 C-128.38508971 177.91223125 -125.34882052 177.92478368 -122.3125 177.9375 C-120.25455836 177.94251503 -118.19661556 177.94707793 -116.13867188 177.95117188 C-111.09241954 177.9622006 -106.04622225 177.97946507 -101 178 C-100.90323975 177.21173828 -100.80647949 176.42347656 -100.70678711 175.61132812 C-99.79845973 170.97023016 -98.27319802 166.6682609 -96.69140625 162.21875 C-96.36462387 161.28703979 -96.03784149 160.35532959 -95.70115662 159.39538574 C-94.65952987 156.42861857 -93.61119376 153.46427559 -92.5625 150.5 C-91.51891882 147.53519862 -90.47669416 144.56992278 -89.43455505 141.60461426 C-88.7868528 139.76329965 -88.13803091 137.92237838 -87.4879303 136.08190918 C-85.95277243 131.73351444 -84.43966869 127.3812499 -83 123 C-84.61056274 122.98598145 -84.61056274 122.98598145 -86.25366211 122.97167969 C-90.27408878 122.9315161 -94.29377125 122.8656871 -98.3137207 122.79248047 C-100.04669566 122.76442263 -101.77979497 122.74313325 -103.51293945 122.72900391 C-122.11507241 122.56831747 -122.11507241 122.56831747 -129 118 C-129.82113281 117.45859375 -130.64226562 116.9171875 -131.48828125 116.359375 C-137.24622342 111.27956306 -141.51766105 105.26619242 -142.23828125 97.3984375 C-142.49163201 87.07772758 -139.95451364 80.31824537 -132.9375 72.7265625 C-127.6506307 68.01527978 -121.4228552 65.90278143 -114.42700195 65.79467773 C-112.71556755 65.7647599 -112.71556755 65.7647599 -110.96955872 65.73423767 C-109.73823715 65.71752518 -108.50691559 65.70081268 -107.23828125 65.68359375 C-105.97735153 65.66281265 -104.71642181 65.64203156 -103.4172821 65.62062073 C-100.06854542 65.56627878 -96.71979795 65.51603834 -93.37097168 65.46777344 C-89.95233771 65.41749643 -86.53379174 65.36184276 -83.11523438 65.30664062 C-76.41022638 65.199465 -69.70515247 65.09769488 -63 65 C-62.79812576 64.39580231 -62.59625153 63.79160461 -62.38825989 63.1690979 C-60.27153825 56.83873279 -58.14443602 50.51192295 -56.01147461 44.18701172 C-55.21848181 41.83112391 -54.42807396 39.47436427 -53.64038086 37.11669922 C-52.50284697 33.71345109 -51.35582402 30.31352421 -50.20703125 26.9140625 C-49.86098343 25.87198639 -49.51493561 24.82991028 -49.15840149 23.7562561 C-45.2271694 12.18969873 -41.12150417 1.82043903 -29.8046875 -4.16015625 C-18.99460696 -8.32533065 -9.46841469 -6.34829515 0 0 Z M-29 16 C-30.55606792 18.73040665 -31.51623394 21.538529 -32.46484375 24.52734375 C-32.74426315 25.34553085 -33.02368256 26.16371796 -33.31156921 27.00669861 C-34.20719143 29.64394795 -35.07200176 32.29023098 -35.9375 34.9375 C-36.54959336 36.75029917 -37.16402353 38.56231095 -37.78076172 40.37353516 C-39.54595467 45.57403007 -41.2780099 50.78506315 -43 56 C-44.20451348 59.64509793 -45.41034722 63.28958357 -46.63500977 66.92797852 C-47.27691686 68.8388196 -47.90462529 70.75451239 -48.51538086 72.67553711 C-48.7913208 73.50190674 -49.06726074 74.32827637 -49.3515625 75.1796875 C-49.57666504 75.87819824 -49.80176758 76.57670898 -50.03369141 77.29638672 C-51.35459972 79.62516342 -52.51044801 80.02722204 -55 81 C-57.82563782 81.23809814 -57.82563782 81.23809814 -61.1262207 81.22363281 C-62.36463211 81.22413635 -63.60304352 81.22463989 -64.87898254 81.22515869 C-65.86765792 81.21927105 -65.86765792 81.21927105 -66.87630653 81.21326447 C-68.94965524 81.20300689 -71.02240568 81.20844372 -73.0957489 81.21868896 C-78.98898868 81.24660537 -84.88189125 81.25921417 -90.77514648 81.22998047 C-94.38520553 81.21319731 -97.99419411 81.22564853 -101.60414696 81.25643158 C-102.97436262 81.26251227 -104.34467382 81.25772871 -105.71480751 81.24155426 C-114.6514398 80.97337495 -114.6514398 80.97337495 -122.33276367 84.92089844 C-125.02252867 87.70694037 -125.95119516 89.35333586 -126.25 93.3125 C-125.91250556 98.29054297 -124.36435447 100.48742584 -121.09204102 104.11523438 C-116.42507051 106.9600044 -112.07803413 106.52627591 -106.71484375 106.46875 C-105.07498253 106.47932434 -105.07498253 106.47932434 -103.4019928 106.4901123 C-99.91359008 106.51215366 -96.42595213 106.50913522 -92.9375 106.5 C-88.34203197 106.48798405 -83.74771069 106.50159167 -79.15234375 106.53125 C-78.0949852 106.51993042 -77.03762665 106.50861084 -75.94822693 106.49694824 C-68.85412253 106.54599946 -68.85412253 106.54599946 -65.24047852 108.46679688 C-62.35828971 114.35256563 -65.17231842 121.19719029 -67.17036438 127.06381226 C-67.46476913 127.89740265 -67.75917389 128.73099304 -68.0625 129.58984375 C-68.52362434 130.93183334 -68.52362434 130.93183334 -68.99406433 132.30093384 C-69.98683994 135.18306891 -70.99283116 138.06036641 -72 140.9375 C-72.68728911 142.91830111 -73.37389108 144.89934077 -74.05981445 146.88061523 C-75.08305416 149.83445123 -76.10741877 152.78786361 -77.13606262 155.73982239 C-79.08547226 161.33637821 -80.99583587 166.94333581 -82.85546875 172.5703125 C-83.25830078 173.77695557 -83.66113281 174.98359863 -84.07617188 176.22680664 C-84.79669664 178.38948896 -85.50820671 180.55520378 -86.20898438 182.72436523 C-86.52544922 183.66223877 -86.84191406 184.6001123 -87.16796875 185.56640625 C-87.42860107 186.35990479 -87.6892334 187.15340332 -87.95776367 187.97094727 C-89.27034553 190.52631569 -90.56726565 191.48403712 -93 193 C-95.29414368 193.35835266 -95.29414368 193.35835266 -97.84106445 193.3371582 C-98.79918533 193.33758621 -99.75730621 193.33801422 -100.74446106 193.3384552 C-102.28827705 193.31980659 -102.28827705 193.31980659 -103.86328125 193.30078125 C-106.05143531 193.30842429 -108.23958655 193.31691435 -110.42773438 193.32617188 C-113.87091035 193.32396267 -117.31352204 193.31249181 -120.7565918 193.28491211 C-124.08440114 193.26415654 -127.4105058 193.28024746 -130.73828125 193.30078125 C-132.2729882 193.27302361 -132.2729882 193.27302361 -133.83869934 193.2447052 C-139.97007558 193.30734157 -143.3431837 194.16801333 -147.76701355 198.51676941 C-150.55010337 201.86470884 -150.28813161 204.75005877 -150 209 C-148.17124161 213.13876899 -145.76991297 215.53692213 -142 218 C-139.21118502 218.36350253 -136.8107582 218.51220156 -134.03125 218.46875 C-132.8943573 218.47932434 -132.8943573 218.47932434 -131.73449707 218.4901123 C-129.32265171 218.51208897 -126.91191583 218.50915612 -124.5 218.5 C-121.32231829 218.48793687 -118.14628739 218.50169544 -114.96875 218.53125 C-114.24465942 218.51993042 -113.52056885 218.50861084 -112.77453613 218.49694824 C-109.30384891 218.53148143 -107.03278207 218.98294998 -103.93945312 220.59179688 C-102 223 -102 223 -101.97631836 226.12329102 C-103.0527023 230.86887576 -104.73973936 235.45303687 -106.37890625 240.02734375 C-107.0595715 241.97319304 -107.73989975 243.91916024 -108.41992188 245.86523438 C-109.49063605 248.90592508 -110.56521792 251.94513578 -111.64624023 254.98217773 C-112.69300881 257.93103344 -113.72429925 260.88495996 -114.75390625 263.83984375 C-115.07887589 264.73904037 -115.40384552 265.638237 -115.73866272 266.56468201 C-117.60356217 271.94886443 -118.4561532 276.29669556 -118 282 C-116.87514101 284.30980441 -116.87514101 284.30980441 -115.125 285.9375 C-114.59132812 286.50339844 -114.05765625 287.06929688 -113.5078125 287.65234375 C-111.11703028 289.78918278 -109.97641584 290.00177994 -106.6875 290.25 C-102.13758092 289.94153091 -99.86971447 288.60451841 -96.47323608 285.68978882 C-94.6863072 283.64019712 -94.03597704 281.85401198 -93.17822266 279.27587891 C-92.85423492 278.31702789 -92.53024719 277.35817688 -92.19644165 276.37026978 C-91.85575653 275.33284637 -91.51507141 274.29542297 -91.1640625 273.2265625 C-90.80283295 272.15183685 -90.44160339 271.07711121 -90.06942749 269.96981812 C-88.91287445 266.52429347 -87.76839374 263.07491151 -86.625 259.625 C-73.95736687 221.63824458 -73.95736687 221.63824458 -70 219 C-67.33893294 218.79539593 -64.78164944 218.70628734 -62.11962891 218.70947266 C-61.31767593 218.70275543 -60.51572296 218.69603821 -59.68946838 218.68911743 C-57.0351036 218.67010052 -54.38099119 218.66621134 -51.7265625 218.6640625 C-49.88194677 218.65763693 -48.03733207 218.65090875 -46.19271851 218.64389038 C-42.32409299 218.63190823 -38.45555683 218.6282105 -34.58691406 218.62939453 C-29.63130258 218.62959773 -24.67626454 218.60229935 -19.72078896 218.56785011 C-15.91005831 218.5456043 -12.09946615 218.54155628 -8.28867722 218.54261398 C-6.46183674 218.54025438 -4.63499266 218.53141066 -2.80821609 218.51594925 C-0.25145669 218.4963367 2.30406012 218.50210824 4.86083984 218.51416016 C5.61426163 218.50292114 6.36768341 218.49168213 7.14393616 218.48010254 C10.77972436 218.52361801 12.87705282 218.92497128 16.00721741 220.8351593 C18 223 18 223 18.02368164 226.12329102 C16.9472977 230.86887576 15.26026064 235.45303687 13.62109375 240.02734375 C12.9404285 241.97319304 12.26010025 243.91916024 11.58007812 245.86523438 C10.50936395 248.90592508 9.43478208 251.94513578 8.35375977 254.98217773 C7.30699119 257.93103344 6.27570075 260.88495996 5.24609375 263.83984375 C4.92112411 264.73904037 4.59615448 265.638237 4.26133728 266.56468201 C2.39643783 271.94886443 1.5438468 276.29669556 2 282 C3.12485899 284.30980441 3.12485899 284.30980441 4.875 285.9375 C5.40867187 286.50339844 5.94234375 287.06929688 6.4921875 287.65234375 C8.88296972 289.78918278 10.02358416 290.00177994 13.3125 290.25 C17.86241908 289.94153091 20.13028553 288.60451841 23.52676392 285.68978882 C25.3136928 283.64019712 25.96402296 281.85401198 26.82177734 279.27587891 C27.14576508 278.31702789 27.46975281 277.35817688 27.80355835 276.37026978 C28.14424347 275.33284637 28.48492859 274.29542297 28.8359375 273.2265625 C29.19716705 272.15183685 29.55839661 271.07711121 29.93057251 269.96981812 C31.08712555 266.52429347 32.23160626 263.07491151 33.375 259.625 C46.04263313 221.63824458 46.04263313 221.63824458 50 219 C52.71884155 218.74171448 52.71884155 218.74171448 56.04443359 218.72875977 C57.28937592 218.71857315 58.53431824 218.70838654 59.81698608 218.69789124 C60.48184399 218.69695024 61.14670189 218.69600925 61.831707 218.69503975 C63.91701849 218.69137358 66.00185542 218.67464036 68.08706665 218.65428162 C74.0149858 218.59889682 79.9429751 218.56821019 85.87109375 218.54370117 C89.49922034 218.52779776 93.12701078 218.49754879 96.75496292 218.45893669 C98.13517301 218.44730959 99.5154433 218.44135654 100.89570236 218.44125557 C102.82944142 218.44106284 104.76314815 218.421248 106.69677734 218.40063477 C108.34533218 218.39302879 108.34533218 218.39302879 110.02719116 218.38526917 C114.61379377 217.79085605 118.05471465 215.53434242 121 212 C122.23534045 208.29397865 122.45528745 205.90246386 122 202 C119.61307623 198.17790054 117.31489068 195.43829689 113 194 C111.41042622 193.90487386 109.81725782 193.86465936 108.22485352 193.8581543 C107.25697403 193.85111984 106.28909454 193.84408539 105.29188538 193.83683777 C104.24810226 193.83267349 103.20431915 193.82850922 102.12890625 193.82421875 C99.92381851 193.80102689 97.71874035 193.77690982 95.51367188 193.75195312 C92.03305597 193.71678545 88.55279377 193.68746266 85.07202148 193.67407227 C81.71554743 193.65862873 78.36010806 193.61844819 75.00390625 193.57421875 C73.44126793 193.57708138 73.44126793 193.57708138 71.84706116 193.58000183 C64.77328441 193.45986857 64.77328441 193.45986857 61.31225586 191.40161133 C59.16533163 187.47244043 59.46112477 184.16454328 60.52923584 179.87417603 C61.26731001 177.44946279 62.08415027 175.06512565 62.9296875 172.67578125 C63.23582977 171.78376007 63.54197205 170.89173889 63.85739136 169.97268677 C64.8525812 167.08213585 65.86320437 164.19727587 66.875 161.3125 C67.56351959 159.32779599 68.251342 157.34284997 68.93847656 155.35766602 C70.63536916 150.46446363 72.34584336 145.57612707 74.05969238 140.68884277 C75.18107729 137.48220311 76.29036169 134.27149296 77.39761353 131.05995178 C78.50647878 127.8494438 79.62828579 124.64354191 80.75 121.4375 C81.33950439 119.72977417 81.33950439 119.72977417 81.94091797 117.98754883 C82.4883667 116.44490356 82.4883667 116.44490356 83.046875 114.87109375 C83.35463867 113.99380615 83.66240234 113.11651855 83.97949219 112.21264648 C85.08385904 109.81817835 85.94702459 108.64098178 88 107 C90.18734741 106.62145996 90.18734741 106.62145996 92.75927734 106.61523438 C93.72392914 106.60512329 94.68858093 106.59501221 95.6824646 106.58459473 C97.24343369 106.58912659 97.24343369 106.58912659 98.8359375 106.59375 C99.90744049 106.58291382 100.97894348 106.57207764 102.08291626 106.56091309 C105.51367206 106.5265815 108.94409482 106.51104575 112.375 106.5 C116.88313354 106.4854413 121.39052198 106.45175759 125.8984375 106.40625 C127.45333389 106.41078186 127.45333389 106.41078186 129.03964233 106.41540527 C135.33415345 106.34985717 138.8850271 105.66997677 143.75 101.5 C145.74589293 99.10492849 146.02760197 96.79495678 146.4375 93.75 C145.86182742 88.8156636 143.71753928 86.20196814 140 83 C136.35086082 81.78362027 132.98993132 81.86466539 129.19140625 81.859375 C127.62433436 81.84105236 126.05727665 81.82148255 124.49023438 81.80078125 C122.02343709 81.77178035 119.55755522 81.74999902 117.09057617 81.74951172 C114.70669642 81.74617795 112.32492062 81.71164658 109.94140625 81.671875 C108.83811729 81.68247955 108.83811729 81.68247955 107.71253967 81.69329834 C104.08224161 81.60702461 102.27390195 81.22526809 99.44116211 78.89550781 C96.92940308 73.84901245 98.76879489 69.57454289 100.3828125 64.47338867 C100.95707794 62.78603503 101.53813765 61.10098262 102.125 59.41796875 C102.43195801 58.52257889 102.73891602 57.62718903 103.05517578 56.70466614 C104.03095574 53.86356583 105.01551709 51.0255947 106 48.1875 C106.66200034 46.2612539 107.32346427 44.33482335 107.984375 42.40820312 C108.61410805 40.5779614 109.24430021 38.74787756 109.875 36.91796875 C110.17293457 36.05342575 110.47086914 35.18888275 110.77783203 34.29814148 C111.05481934 33.50003555 111.33180664 32.70192963 111.6171875 31.87963867 C111.98239502 30.82542976 111.98239502 30.82542976 112.35498047 29.74992371 C113 28 113 28 114 26 C114.66457276 20.72765494 114.66457276 20.72765494 112.765625 15.953125 C109.35038948 11.86160522 107.19216285 10.29509885 101.75 9.5625 C96.70483031 10.15110313 94.32878269 12.26024274 91 16 C89.44393208 18.73040665 88.48376606 21.538529 87.53515625 24.52734375 C87.25573685 25.34553085 86.97631744 26.16371796 86.68843079 27.00669861 C85.79280857 29.64394795 84.92799824 32.29023098 84.0625 34.9375 C83.45040664 36.75029917 82.83597647 38.56231095 82.21923828 40.37353516 C80.45404533 45.57403007 78.7219901 50.78506315 77 56 C75.79548652 59.64509793 74.58965278 63.28958357 73.36499023 66.92797852 C72.72308314 68.8388196 72.09537471 70.75451239 71.48461914 72.67553711 C71.2086792 73.50190674 70.93273926 74.32827637 70.6484375 75.1796875 C70.42333496 75.87819824 70.19823242 76.57670898 69.96630859 77.29638672 C68.61687401 79.67545558 67.57838621 80.03564854 65 81 C62.29628922 81.20560717 59.69436668 81.30401728 56.99023438 81.30639648 C56.18652908 81.31472 55.38282379 81.32304352 54.55476379 81.33161926 C51.90104314 81.35569324 49.24756822 81.36448686 46.59375 81.37109375 C44.74816819 81.38005998 42.90258714 81.38918183 41.05700684 81.39845276 C37.19016757 81.41493675 33.32341486 81.42264216 29.45654297 81.42553711 C24.49963003 81.43092937 19.54352875 81.46864643 14.5868454 81.51428127 C10.77615373 81.54400457 6.96565898 81.55125958 3.15486145 81.55226326 C1.32717662 81.55647271 -0.50050842 81.568936 -2.32807922 81.58978081 C-4.88274183 81.61660642 -7.43550336 81.61189792 -9.99023438 81.59936523 C-10.74568039 81.61419952 -11.5011264 81.62903381 -12.27946472 81.64431763 C-16.07708357 81.5912035 -17.68485175 81.29407742 -20.50402832 78.66339111 C-22.59830404 74.93479423 -22.02941135 73.12322847 -21 69 C-20.05145536 65.77118544 -18.9829234 62.59529039 -17.875 59.41796875 C-17.56804199 58.52257889 -17.26108398 57.62718903 -16.94482422 56.70466614 C-15.96904426 53.86356583 -14.98448291 51.0255947 -14 48.1875 C-13.33799966 46.2612539 -12.67653573 44.33482335 -12.015625 42.40820312 C-11.38589195 40.5779614 -10.75569979 38.74787756 -10.125 36.91796875 C-9.82706543 36.05342575 -9.52913086 35.18888275 -9.22216797 34.29814148 C-8.94518066 33.50003555 -8.66819336 32.70192963 -8.3828125 31.87963867 C-8.01760498 30.82542976 -8.01760498 30.82542976 -7.64501953 29.74992371 C-7 28 -7 28 -6 26 C-5.33542724 20.72765494 -5.33542724 20.72765494 -7.234375 15.953125 C-10.64961052 11.86160522 -12.80783715 10.29509885 -18.25 9.5625 C-23.29516969 10.15110313 -25.67121731 12.26024274 -29 16 Z " fill="#020203" transform="translate(258,106)"/>
<path d="M0 0 C22.33508736 7.49306156 39.34599485 22.76755585 50.25 43.5625 C58.84104336 61.44199741 59.72296179 78.74981213 59.61523438 98.34667969 C59.61597438 101.05418923 59.62421424 103.76166493 59.63204956 106.46916199 C59.64645787 113.01362697 59.6344642 119.55777803 59.61293632 126.10221305 C59.58873634 133.74376312 59.59065215 141.38524415 59.59324223 149.02682403 C59.59691921 162.67012824 59.57621884 176.31328598 59.54199219 189.95654297 C59.5088833 203.15938006 59.49473988 216.36206363 59.50097656 229.56494141 C59.50775706 243.98974551 59.50523537 258.41448566 59.48561716 272.83928037 C59.48405793 273.98576852 59.48405793 273.98576852 59.4824672 275.15541805 C59.48037652 276.68996361 59.47826555 278.22450914 59.47613403 279.75905465 C59.46927169 285.07121471 59.46856352 290.38335493 59.47001648 295.69551849 C59.47146358 302.17615485 59.46163113 308.65666697 59.43807012 315.13726225 C59.42629915 318.43644704 59.42065035 321.73542718 59.42490768 325.03463554 C59.45150883 350.51932336 59.45150883 350.51932336 56 363 C55.78280052 363.7898164 55.56560104 364.5796328 55.34181976 365.39338303 C48.81446082 386.90637121 33.97626129 404.56294828 14.7265625 415.93359375 C0.59629388 423.45141401 -14.17592147 427.14633766 -30.14762878 427.15390015 C-31.27457714 427.1582824 -32.40152549 427.16266465 -33.5626238 427.1671797 C-37.34147422 427.18054123 -41.12030134 427.18674074 -44.89916992 427.19287109 C-47.60811136 427.2002514 -50.31704796 427.20903898 -53.02598572 427.21765137 C-61.15860643 427.24213306 -69.29123316 427.25679877 -77.42387936 427.26971143 C-79.72412202 427.27342725 -82.0243641 427.27740018 -84.32460618 427.2814641 C-98.63254935 427.30671071 -112.94049357 427.32874703 -127.24845409 427.34119225 C-130.56008597 427.34412158 -133.87171781 427.34708329 -137.18334961 427.35009766 C-138.00636361 427.35084371 -138.82937761 427.35158976 -139.67733143 427.35235842 C-152.98522438 427.36498982 -166.29298305 427.39818503 -179.60081335 427.43989949 C-193.28893611 427.48245117 -206.9769904 427.50590271 -220.66517907 427.51111281 C-228.34022906 427.51451258 -236.01506944 427.52609658 -243.69005394 427.55921555 C-250.23201983 427.58740016 -256.77373312 427.59813576 -263.31575497 427.58702008 C-266.64598336 427.5818792 -269.97526143 427.58721762 -273.30548096 427.60948563 C-301.20333438 427.78574328 -323.5474593 422.32720592 -345 404 C-345.67417969 403.42765625 -346.34835937 402.8553125 -347.04296875 402.265625 C-356.08185267 393.90931126 -365.49665678 380.09000988 -368 368 C-367.34 368 -366.68 368 -366 368 C-365.04277355 369.40165301 -364.09173705 370.80792225 -363.171875 372.234375 C-353.56040899 386.71565045 -334.9555218 397.52856491 -318 401 C-311.90890747 402.07511218 -305.96007901 402.15364269 -299.78353882 402.16062927 C-298.66123072 402.16571709 -297.53892263 402.17080491 -296.3826052 402.17604691 C-292.62535126 402.19173095 -288.86811651 402.20028593 -285.11083984 402.20874023 C-283.10199251 402.21585022 -281.09314516 402.22296675 -279.08429967 402.23058056 C-270.30796225 402.26382029 -261.53161335 402.28541348 -252.75523371 402.30378041 C-250.46656526 402.30858194 -248.17789727 402.31356449 -245.8892293 402.31858563 C-231.64755912 402.34956984 -217.40588471 402.37622831 -203.16419029 402.39300442 C-199.86890022 402.39695331 -196.57361023 402.40095638 -193.27832031 402.4050293 C-192.45938705 402.40603766 -191.64045379 402.40704602 -190.79670437 402.40808494 C-177.55809708 402.42505798 -164.31967783 402.46613269 -151.08116214 402.51705229 C-137.45854029 402.56901368 -123.83601468 402.59797112 -110.21329463 402.6052013 C-102.57727593 402.60984091 -94.94156485 402.62435162 -87.30564499 402.6649456 C-80.79630585 402.69951025 -74.28732992 402.71307962 -67.77790438 402.70052146 C-64.46550312 402.69475475 -61.15447971 402.70150449 -57.84209633 402.7286911 C-33.04088961 402.92119549 -12.50056602 399.07738974 7 383 C7.99 382.278125 8.98 381.55625 10 380.8125 C23.7332883 369.09545624 32.56987035 348.82719376 34.28326225 331.0632143 C34.74029162 322.96434985 34.65971451 314.85943047 34.61523438 306.75097656 C34.6159741 304.041992 34.62421283 301.3330413 34.63204956 298.62406921 C34.64646649 292.07245024 34.63445529 285.52114456 34.61293632 278.96955547 C34.58875102 271.32149299 34.59065127 263.67349963 34.59324223 256.0254074 C34.59692016 242.37152873 34.57621051 228.71779635 34.54199219 215.06396484 C34.5088827 201.84745592 34.49473976 188.63110035 34.50097656 175.41455078 C34.50775532 160.97877657 34.50524027 146.54306628 34.48561716 132.10730147 C34.48457768 131.34256846 34.48353819 130.57783546 34.4824672 129.78992872 C34.4803765 128.25451456 34.47826554 126.71910043 34.47613403 125.18368633 C34.4692684 119.86555769 34.46856407 114.54744886 34.47001648 109.22931671 C34.47146279 102.74240591 34.46164531 96.25561929 34.43807012 89.76874956 C34.42628993 86.46564501 34.4206542 83.16274541 34.42490768 79.85961723 C34.45399318 51.93835715 29.61654235 29.97461066 10 9 C6.87642327 6.26557319 3.71714866 3.85857433 0 2 C0 1.34 0 0.68 0 0 Z " fill="#587CDB" transform="translate(413,45)"/>
<path d="M0 0 C0.81185257 -0.00861557 1.62370514 -0.01723114 2.4601593 -0.02610779 C5.1418147 -0.04879641 7.82242746 -0.04202356 10.50415039 -0.03295898 C12.36975923 -0.03819357 14.23536541 -0.04446944 16.10096741 -0.05174255 C20.01079766 -0.06215229 23.92026411 -0.0575775 27.83007812 -0.04296875 C32.83853685 -0.0257862 37.84584781 -0.04926638 42.85417843 -0.08445835 C46.70699148 -0.10642892 50.55952981 -0.10499162 54.41238594 -0.09669304 C56.25875672 -0.09587321 58.10514761 -0.10274267 59.95145988 -0.11746407 C62.53476151 -0.13490272 65.11599981 -0.12037455 67.69921875 -0.09765625 C68.46042023 -0.10934845 69.2216217 -0.12104065 70.00588989 -0.13308716 C73.92392273 -0.06304913 75.76732132 0.42241686 78.92750549 2.80957031 C80.91430664 5.53344727 80.91430664 5.53344727 81.29150391 7.65333557 C81.10672485 8.68949257 81.10672485 8.68949257 80.91821289 9.74658203 C80.78044434 10.52744171 80.64267578 11.30830139 80.50073242 12.11282349 C79.5093291 16.20509662 78.25353672 20.15432775 76.85180664 24.12329102 C76.54443573 25.01790543 76.23706482 25.91251984 75.92037964 26.83424377 C74.92764827 29.71645814 73.92165143 32.59381111 72.91430664 35.47094727 C72.22631987 37.4524927 71.53898539 39.43426473 70.85229492 41.41625977 C69.82817354 44.37083767 68.80304724 47.32503557 67.77371216 50.27780151 C65.82983724 55.85896762 63.93216034 61.45180352 62.09399414 67.06860352 C61.69567383 68.27073486 61.29735352 69.47286621 60.88696289 70.71142578 C60.17693757 72.86029466 59.47823197 75.01295125 58.79321289 77.16992188 C58.4799707 78.10457275 58.16672852 79.03922363 57.84399414 80.00219727 C57.58859863 80.79045898 57.33320313 81.5787207 57.07006836 82.39086914 C55.45405096 85.38668002 53.78067406 86.67810505 50.91430664 88.53344727 C48.08044682 88.92565773 45.63653778 89.09150665 42.80688477 89.06689453 C41.60351723 89.07981789 41.60351723 89.07981789 40.37583923 89.09300232 C37.73208066 89.11564862 35.08938316 89.10892668 32.44555664 89.09985352 C30.60379726 89.10508943 28.76204056 89.11136579 26.92028809 89.11863708 C23.0635108 89.12903858 19.20710254 89.12448304 15.3503418 89.10986328 C10.41028759 89.09266898 5.47139577 89.11617966 0.53147125 89.15135288 C-3.27072848 89.17332214 -7.07264981 89.17188669 -10.87489319 89.16358757 C-12.69614436 89.16276792 -14.51741595 89.16963398 -16.33860779 89.1843586 C-18.88588772 89.20179797 -21.4310754 89.18726948 -23.97827148 89.16455078 C-25.10369102 89.18208908 -25.10369102 89.18208908 -26.25184631 89.19998169 C-30.18134722 89.1287465 -31.93401296 88.6525995 -35.06143188 86.19586182 C-37.77027494 82.63304978 -37.66578741 80.94644848 -37.08569336 76.53344727 C-36.28763177 73.35714388 -35.2480977 70.29532816 -34.15600586 67.20922852 C-33.84990891 66.31725266 -33.54381195 65.42527679 -33.22843933 64.50627136 C-32.23329393 61.61564074 -31.22266446 58.7307261 -30.21069336 55.84594727 C-29.52147605 53.86049895 -28.83292112 51.87482058 -28.14501953 49.88891602 C-26.77458003 45.9394776 -25.39711497 41.99259445 -24.01391602 38.04760742 C-22.56416489 33.910295 -21.13199346 29.7674325 -19.71386719 25.6191864 C-18.6185392 22.42048698 -17.50774193 19.22724148 -16.39819336 16.03344727 C-16.01356934 14.90334229 -15.62894531 13.7732373 -15.23266602 12.60888672 C-14.87092285 11.5836792 -14.50917969 10.55847168 -14.13647461 9.50219727 C-13.83394775 8.63014648 -13.5314209 7.7580957 -13.21972656 6.85961914 C-10.19282542 0.65072483 -6.52803861 -0.05581729 0 0 Z " fill="#010102" transform="translate(234.085693359375,211.466552734375)"/>
<path d="M0 0 C20.13 0 40.26 0 61 0 C59.164375 5.5275 57.32875 11.055 55.4375 16.75 C54.87474365 18.44737305 54.3119873 20.14474609 53.73217773 21.89355469 C49.93437952 33.30713998 45.97498993 44.64288592 42 56 C21.87 56 1.74 56 -19 56 C-17.01641181 48.72684332 -14.95962748 41.67469621 -12.4609375 34.58984375 C-12.13461334 33.65572159 -11.80828918 32.72159943 -11.47207642 31.75917053 C-10.78978645 29.80831247 -10.10571902 27.85807519 -9.41992188 25.90844727 C-8.36707476 22.91496678 -7.31981222 19.91957648 -6.2734375 16.92382812 C-5.60709066 15.02072132 -4.94043532 13.1177225 -4.2734375 11.21484375 C-3.80313614 9.87123024 -3.80313614 9.87123024 -3.32333374 8.50047302 C-3.03278107 7.67523636 -2.74222839 6.84999969 -2.44287109 5.99975586 C-2.06006485 4.9103495 -2.06006485 4.9103495 -1.66952515 3.79893494 C-1 2 -1 2 0 0 Z " fill="#6DB9FD" transform="translate(235,228)"/>
</svg>
